<svg id="Layer_1" data-name="Layer 1" xmlns="http://www.w3.org/2000/svg" viewBox="0 0 17.01 15.59"><path d="M1.9,8.9a6.81,6.81,0,0,1,.35-1.45A7.25,7.25,0,0,1,5,3.71a7.29,7.29,0,0,1,5.81-1.29A6.08,6.08,0,0,0,7.55,1.08h0A5.74,5.74,0,0,0,2,2.63,5.89,5.89,0,0,0,.43,8.3h0A3.94,3.94,0,0,0,.87,9.74h0a4.48,4.48,0,0,0,1.28,2A7.37,7.37,0,0,1,1.9,8.91Z" fill="#e48793"/><path d="M10.45,4.09A3.56,3.56,0,0,0,8.6,3.37a.23.23,0,0,0-.16,0A3.37,3.37,0,0,0,5.28,4.66,3.2,3.2,0,0,0,4.52,8h0A3.08,3.08,0,0,0,5.6,9.92a.32.32,0,0,0,.52-.27,2.42,2.42,0,0,1,0-.25A4.32,4.32,0,0,1,7.38,5.91,3.71,3.71,0,0,1,10.21,4.8c.21,0,.52.14.61-.16S10.62,4.21,10.45,4.09Z" fill="#e48793"/><path d="M10.84,12.35a5.22,5.22,0,0,1-5-.52h0a5.31,5.31,0,0,1-2-5,3.74,3.74,0,0,0-.91,1.79c-.48,1.84-.51,3.59,1.11,5S9.21,14.55,10.84,12.35Z" fill="#e48793"/><path d="M11.54,2.08c.33.33.66.65,1,1A7.61,7.61,0,0,1,14,6.75h0a7.81,7.81,0,0,1-4.93,7.88,7.1,7.1,0,0,0,3.5-.52c4.05-1.61,5.38-6,2.83-9.31A7.15,7.15,0,0,0,11.54,2.08Z" fill="#e48793"/><path d="M12.11,5.5a2.82,2.82,0,0,0-3.55,1,3.93,3.93,0,0,1,2.3.39h0A3.36,3.36,0,0,1,12.1,9.66C13.37,8.4,13.52,6.11,12.11,5.5Z" fill="#e48793"/><path d="M8,7.47a1.74,1.74,0,0,0,1,2.21,2.34,2.34,0,0,1,1.45-2.31C9.32,6.74,8.34,6.79,8,7.47Z" fill="#e48793"/><path d="M7,8.37c-.37,1.65-.3,2.15.37,3.12,1.33,1.36,3.41.55,4.17-1.73a3.57,3.57,0,0,1-2.73.48A3.71,3.71,0,0,1,7,8.37Z" fill="#e48793"/><path d="M10.93,9.52c.32-.43.12-.88-.35-1.35A1.65,1.65,0,0,1,9.5,9.55C10.1,9.79,10.6,9.94,10.93,9.52Z" fill="#e48793"/></svg>