<?xml version="1.0" encoding="utf-8"?>
<!-- Generator: Adobe Illustrator 24.2.3, SVG Export Plug-In . SVG Version: 6.00 Build 0)  -->
<svg version="1.1" id="Layer_1" xmlns="http://www.w3.org/2000/svg" xmlns:xlink="http://www.w3.org/1999/xlink" x="0px" y="0px"
	 viewBox="0 0 123.57 26.72" style="enable-background:new 0 0 123.57 26.72;" xml:space="preserve">
<style type="text/css">
	.st0{fill:#F0F0F0;}
	.st1{fill:none;stroke:#000000;stroke-miterlimit:10;}
	.st2{fill:#C78E66;}
	.st3{fill:#9EA76C;}
	.st4{fill:#DC7B94;}
	.st5{fill:#EE7494;}
	.st6{fill:#EE7394;}
	.st7{fill:#EE7194;}
	.st8{fill:#EF7F9C;}
	.st9{fill:none;stroke:#000000;stroke-width:3;stroke-miterlimit:10;}
	.st10{fill:#F6F6F6;}
	.st11{fill:#E30B17;}
	.st12{fill:#FFFFFF;}
	.st13{fill:#FFED00;}
</style>
<g>
	<path class="st12" d="M80.8,18.04c0.01-0.38,0.24-1.1,0.35-1.46c0.49-1.55,1.42-2.77,2.72-3.74c1.75-1.3,3.69-1.63,5.82-1.29
		c-0.96-0.72-2-1.24-3.23-1.34v0c-2.12-0.45-4,0.01-5.55,1.55c-1.57,1.55-2.02,3.55-1.57,5.67c0,0,0,0,0,0
		c0.06,0.49,0.22,1.11,0.43,1.44c0,0,0.01,0,0.01,0.01c0.25,0.78,0.65,1.47,1.28,2.03C80.73,19.96,80.77,19,80.8,18.04
		C80.8,18.04,80.8,18.04,80.8,18.04z"/>
	<path class="st12" d="M89.35,13.23c-0.56-0.37-1.14-0.7-1.84-0.72c-0.05-0.03-0.11-0.03-0.16-0.02c-1.3-0.2-2.33,0.35-3.16,1.31
		c-0.83,0.96-1.19,2.06-0.76,3.33c0,0,0,0,0,0c0.12,0.8,0.48,1.43,1.08,1.93c0.22,0.18,0.55,0.01,0.52-0.27
		C85.01,18.7,85,18.61,85,18.53c-0.04-1.34,0.27-2.51,1.29-3.49c0.82-0.78,1.72-1.15,2.83-1.11c0.21,0.01,0.52,0.14,0.61-0.16
		C89.8,13.52,89.52,13.34,89.35,13.23z"/>
	<path class="st12" d="M89.75,21.49c-1.83,0.74-3.48,0.48-5.04-0.53v0c-1.46-1.32-2.33-2.88-2-4.96c-0.52,0.53-0.75,1.16-0.92,1.79
		c-0.48,1.84-0.51,3.59,1.12,4.97C84.64,24.29,88.12,23.68,89.75,21.49z"/>
	<path class="st12" d="M90.44,11.21c0.33,0.33,0.67,0.65,0.97,1c0.9,1.07,1.3,2.37,1.53,3.67l0,0c0,0,0,0,0,0
		c0.07,3.67-1.5,6.33-4.93,7.88c1.26,0.15,2.4-0.09,3.5-0.52c4.05-1.61,5.38-5.96,2.83-9.3C93.38,12.55,92.04,11.71,90.44,11.21z"/>
	<path class="st12" d="M91.02,14.63c-1.18-0.6-2.75-0.16-3.55,1.04c0.82-0.06,1.59-0.01,2.3,0.39v0c0.82,0.69,1.24,1.59,1.24,2.73
		C92.28,17.54,92.43,15.24,91.02,14.63z"/>
	<path class="st12" d="M86.86,16.6c-0.39,0.68,0.02,1.68,0.94,2.21c-0.08-1.13,0.55-1.8,1.45-2.31
		C88.23,15.87,87.25,15.92,86.86,16.6z"/>
	<path class="st12" d="M85.89,17.5c-0.37,1.65-0.3,2.14,0.37,3.12c1.33,1.36,3.41,0.55,4.17-1.73c-0.88,0.65-1.81,0.58-2.73,0.48
		C86.91,18.95,86.25,18.38,85.89,17.5z"/>
	<path class="st12" d="M89.83,18.65c0.33-0.42,0.13-0.88-0.35-1.35c-0.11,0.67-0.42,1.11-1.07,1.38
		C89.01,18.93,89.5,19.08,89.83,18.65z"/>
	<path class="st12" d="M79.96,22.29c-0.4,0.06-0.34,0.24-1.3,0.19c-0.89,0-1.81-0.67-1.81-0.67s-0.64-0.27-1.26-0.92
		c-0.35-0.38-1.37-1.33-2.13-2.24c-1.47-1.67-2.29-3.21-2.7-4.27c-0.02-0.07,0.01-0.13,0.08-0.17c1.24-0.42,2.14-0.92,2.68-1.51
		c0.89-0.96,1.33-2.2,1.33-3.7c0-1.32-0.45-2.4-1.36-3.27c-0.78-0.75-1.81-1.23-3.08-1.43c-0.57-0.09-1.16-0.14-1.76-0.14
		c-0.11,0-0.63,0.02-1.56,0.06s-1.46,0.06-1.59,0.06h-4.16c-0.07,0-0.11,0.04-0.11,0.11v0.51c0,0.07,0.05,0.11,0.14,0.11h1.76
		c0.31,0,0.47,1.27,0.49,3.82v5.75v7.42c0,0.29-0.07,0.43-0.22,0.43h-1.82c-0.05,0-0.08,0.01-0.11,0.02
		c-0.03,0.01-0.04,0.06-0.04,0.15v0.43c0,0.04,0.01,0.07,0.03,0.1c0.02,0.03,0.07,0.04,0.15,0.04h7.36c0.07,0,0.11-0.05,0.11-0.14
		v-0.46c0-0.09-0.05-0.14-0.14-0.14h-2.47c-0.42,0-0.63-1.01-0.63-3.04c0-1.1,0-2.15-0.01-3.15c-0.01-1-0.01-1.58-0.01-1.76
		c0-0.14,0.07-0.19,0.22-0.14c1.1,0.11,1.87,0.17,2.31,0.17c0.08,0,0.16,0.08,0.22,0.24c0.98,1.76,1.75,3.06,2.31,3.89
		c0.5,0.68,1,1.35,1.5,2.03c0.94,1.25,0.96,1.44,1.95,2.33c0.66,0.6,2.28,1.35,3.52,1.3c0.38-0.02,0.94,0.01,1.52-0.25
		c0.27-0.12,0.59-0.41,0.7-0.62c0.01-0.02,0.17-0.36,0.17-0.4c0.03-0.23,0.03-0.23-0.08-0.47C80.09,22.4,80.06,22.27,79.96,22.29z
		 M69.12,13.59c-0.5,0.07-0.94,0.11-1.34,0.11c-0.96,0-1.55-0.02-1.76-0.06c-0.13-0.03-0.19-0.09-0.19-0.19v-3.17
		c0.04-0.66,0.06-2.32,0.06-4.97c0.03-0.13,0.2-0.19,0.51-0.19c2.16,0,3.81,0.54,4.95,1.61c0.82,0.78,1.22,1.78,1.22,3.02
		c0,2.01-0.92,3.26-2.77,3.74C69.84,13.48,69.62,13.52,69.12,13.59z"/>
	<path class="st12" d="M13.71,4.81c-0.65-0.14-1.48-0.21-2.5-0.21c-0.06,0-0.62,0.01-1.69,0.04C8.45,4.68,7.84,4.69,7.68,4.69H4.21
		c-0.11,0-0.17,0.05-0.17,0.15v0.49c0,0.07,0.07,0.11,0.2,0.11h1.9c0.23,0,0.35,0.86,0.35,2.58v14.31c0,0.23-0.07,0.35-0.22,0.35
		H4.35c-0.09,0-0.14,0.06-0.14,0.17v0.43c0,0.07,0.04,0.11,0.11,0.11h7.49c0.06,0,0.08-0.06,0.08-0.17v-0.38
		c0-0.11-0.06-0.17-0.17-0.17h-2.5c-0.38,0-0.57-1.06-0.57-3.17V15c0-0.07,0.04-0.1,0.11-0.08c1.22,0.32,2.29,0.49,3.21,0.49
		c1.97,0,3.46-0.53,4.47-1.6c0.96-1.02,1.45-2.23,1.45-3.64c0-1.57-0.46-2.83-1.39-3.79C15.71,5.55,14.78,5.03,13.71,4.81z
		 M14.6,13.6c-0.67,0.67-1.7,1-3.08,1c-1.19,0-2.08-0.11-2.67-0.33C8.72,14.21,8.66,14.12,8.66,14c0-0.06,0-0.7,0.01-1.92
		c0.01-1.23,0.01-1.88,0.01-1.97c0-2.36,0.03-3.79,0.08-4.28c0.02-0.17,0.07-0.26,0.14-0.28s0.38-0.03,0.92-0.03
		c1.94,0,3.44,0.54,4.52,1.63c0.92,0.91,1.38,1.98,1.38,3.21C15.71,11.79,15.34,12.86,14.6,13.6z"/>
	<path class="st12" d="M25.86,22.6h-1.68c-0.45,0-0.68-1.11-0.68-3.33c0-0.13,0.04-1.56,0.1-4.29s0.1-4.11,0.1-4.13
		c0-0.29-0.11-0.43-0.32-0.43c0.05,0-0.23,0.03-0.82,0.08c-0.8,0.07-1.63,0.11-2.49,0.11h-0.82c-0.09,0-0.14,0.06-0.14,0.18v0.49
		c0,0.09,0.07,0.14,0.22,0.14h1.38c0.4,0,0.65,0.43,0.75,1.29c0.03,0.29,0.04,1.15,0.04,2.6c0,0.23,0,1.44-0.01,3.63
		c-0.01,2.19-0.01,3.31-0.01,3.37c0,0.19-0.09,0.29-0.26,0.29H19.2c-0.07,0-0.11,0.06-0.11,0.19v0.43c0,0.11,0.05,0.17,0.14,0.17
		h6.6c0.11,0,0.17-0.05,0.17-0.14v-0.51C26,22.65,25.95,22.6,25.86,22.6z"/>
	<path class="st12" d="M21.97,7.45c0.33,0,0.69-0.16,1.07-0.49c0.44-0.38,0.67-0.82,0.67-1.31c0-0.58-0.28-0.88-0.83-0.88
		c-0.54,0-0.99,0.22-1.36,0.67c-0.31,0.37-0.46,0.74-0.46,1.1C21.05,7.15,21.36,7.45,21.97,7.45z"/>
	<path class="st12" d="M41.12,22.68h-1.9c-0.2,0-0.29-0.68-0.29-2.03c0,0.03,0.03-0.7,0.09-2.17s0.09-2.53,0.09-3.15
		c0-1.87-0.35-3.15-1.06-3.84c-0.66-0.65-1.48-0.97-2.47-0.97c-0.65,0-1.32,0.15-2.03,0.46c-0.74,0.32-1.51,0.81-2.31,1.46
		c-0.11,0.11-0.17,0.02-0.17-0.26c0-0.07,0.01-0.32,0.03-0.75c0.02-0.43,0.03-0.68,0.03-0.72c0-0.21-0.07-0.32-0.19-0.32
		c-0.07,0-0.21,0.02-0.4,0.06s-0.34,0.07-0.43,0.08c-0.02,0-0.22,0.01-0.6,0.03s-0.63,0.03-0.73,0.03h-1.79
		c-0.07,0-0.11,0.04-0.11,0.13v0.42c0,0.12,0.06,0.18,0.17,0.18h1.68c0.29,0,0.43,0.69,0.43,2.07c0,0.15-0.01,1.67-0.04,4.58
		c-0.03,2.9-0.04,4.38-0.04,4.44c0,0.18-0.07,0.26-0.21,0.26h-1.76c-0.09,0-0.14,0.04-0.14,0.11v0.46c0,0.07,0.01,0.12,0.03,0.14
		c0.02,0.02,0.06,0.03,0.1,0.03h6.24c0.09,0,0.14-0.04,0.14-0.11V22.8c0-0.09-0.05-0.14-0.14-0.14h-1.9c-0.29,0-0.43-0.97-0.43-2.9
		c0-3.8,0.03-5.9,0.08-6.29c0-0.16,0.06-0.28,0.19-0.36c0.81-0.56,1.83-0.83,3.07-0.83c0.98,0,1.71,0.23,2.19,0.68
		c0.48,0.45,0.72,1.46,0.72,3.02c0,3.33-0.06,5.49-0.19,6.46c-0.05,0.16-0.13,0.24-0.25,0.24h-1.49c-0.09,0-0.14,0.05-0.14,0.14
		v0.49c0,0.07,0.05,0.11,0.14,0.11h5.86c0.07,0,0.11-0.06,0.11-0.17v-0.46C41.28,22.71,41.23,22.68,41.12,22.68z"/>
	<path class="st12" d="M103.82,16.39c-0.9-0.3-1.58-0.51-2.04-0.65c-1.52-0.44-2.28-1.21-2.28-2.31c0-0.68,0.3-1.19,0.89-1.53
		c0.51-0.31,1.17-0.46,1.99-0.46c0.86,0,1.5,0.05,1.9,0.17c0.13,0.02,0.24,0.11,0.32,0.26c0.43,0.9,0.81,1.73,1.17,2.5
		c0.06,0.11,0.14,0.17,0.25,0.17c0.09,0,0.14-0.1,0.14-0.31v-2c0-0.15-0.04-0.26-0.11-0.33c-0.83-0.84-2.11-1.26-3.83-1.26
		c-1.41,0-2.48,0.39-3.22,1.17c-0.58,0.62-0.88,1.34-0.88,2.17c0,1.02,0.33,1.85,1,2.5c0.47,0.46,1.25,0.93,2.32,1.4
		c0.09,0.03,0.37,0.12,0.82,0.29s0.72,0.26,0.81,0.28c0.76,0.17,1.38,0.46,1.85,0.88c0.34,0.31,0.51,0.67,0.51,1.08
		c0,0.7-0.23,1.25-0.68,1.65c-0.58,0.51-1.37,0.76-2.36,0.76c-1,0-1.72-0.04-2.17-0.11c-0.13-0.03-0.28-0.14-0.46-0.35
		c-0.64-0.79-1.07-1.58-1.31-2.39c-0.02-0.1-0.07-0.28-0.14-0.54c-0.07-0.22-0.11-0.35-0.11-0.39c-0.04-0.14-0.13-0.21-0.29-0.21
		c-0.15,0-0.22,0.09-0.22,0.26c0,1.25,0.02,2.07,0.06,2.45c0,0.3,0.06,0.5,0.19,0.6c1.22,0.96,2.71,1.45,4.47,1.45
		c1.65,0,2.83-0.42,3.53-1.25c0.56-0.68,0.85-1.52,0.85-2.53c0-0.96-0.31-1.73-0.93-2.31C105.34,17.05,104.67,16.68,103.82,16.39z"
		/>
	<path class="st12" d="M119.48,21.41c-0.03-0.06-0.06-0.1-0.11-0.1c-0.05,0.03-0.1,0.05-0.13,0.07c-0.15,0.15-0.42,0.29-0.82,0.42
		c-0.57,0.19-1.29,0.29-2.17,0.29c-1.71,0-2.95-0.32-3.7-0.97c-1.4-1.21-2.1-2.78-2.1-4.7c0-0.44,0.06-0.65,0.17-0.65
		c0.06,0,0.29,0,0.67-0.01c0.38-0.01,0.6-0.01,0.66-0.01c0.65,0,1.95-0.18,3.91-0.54c1.71-0.32,2.75-0.54,3.1-0.68
		c0.17-0.06,0.25-0.15,0.25-0.25c0-0.12-0.04-0.26-0.11-0.43c-0.31-0.67-0.89-1.31-1.76-1.93c-0.73-0.53-1.26-0.87-1.6-1.03
		c-0.43-0.21-0.97-0.32-1.64-0.32c-1.39,0-2.56,0.47-3.5,1.4c-0.82,0.8-1.39,1.89-1.71,3.27c-0.13,0.57-0.19,1.45-0.19,2.65
		c0,1.69,0.59,3.12,1.76,4.29c0.96,0.96,2.26,1.45,3.89,1.45c1.09,0,2.11-0.21,3.04-0.63c0.58-0.26,1.05-0.51,1.39-0.75
		c0.19-0.14,0.44-0.35,0.72-0.64c0.02-0.04,0.03-0.06,0.03-0.08C119.51,21.47,119.5,21.43,119.48,21.41z M110.9,13.58
		c0.22-0.56,0.43-0.97,0.63-1.24c0.54-0.71,1.1-1.07,1.68-1.07c0.79,0,1.48,0.23,2.08,0.69c0.6,0.46,1.1,1.05,1.5,1.75
		c0.09,0.17,0.14,0.29,0.14,0.36c0,0.11-0.07,0.2-0.22,0.26c-0.81,0.31-2.01,0.52-3.61,0.65c-1.69,0.13-2.48,0.2-2.39,0.2
		c-0.11,0-0.17-0.07-0.17-0.22C110.54,14.65,110.66,14.18,110.9,13.58z"/>
	<path class="st12" d="M58.02,22.29c-0.4,0.06-0.34,0.24-1.3,0.19c-0.89,0-1.81-0.67-1.81-0.67s-0.64-0.27-1.26-0.92
		c-0.05-0.05-0.1-0.11-0.17-0.17c-0.72-0.83-1.11-1.29-1.17-1.36c-0.08-0.1-0.48-0.56-1.19-1.38c-0.46-0.53-0.78-0.89-0.98-1.1
		c-0.11-0.16-0.21-0.31-0.3-0.47c0.01-0.03,0-0.05,0.03-0.08c1.96-1.62,3.01-2.49,3.13-2.61c1.01-1.01,1.7-1.79,2.08-2.33
		c0.19-0.23,0.28-0.43,0.28-0.6c0-0.21-0.07-0.32-0.22-0.32c-0.06,0-0.18,0.01-0.35,0.04c-0.19,0.03-0.35,0.04-0.47,0.04
		c-0.36,0.02-0.76,0.03-1.2,0.03h-2.31c-0.07,0-0.11,0.05-0.11,0.15v0.42c0,0.1,0.04,0.15,0.11,0.15h1.45
		c0.38,0,0.57,0.15,0.57,0.45c0,0.36-0.22,0.79-0.65,1.29c-0.81,0.91-1.86,1.9-3.15,2.99c-1.15,0.95-2.01,1.58-2.57,1.9
		c-0.13,0.07-0.19-0.02-0.19-0.29c0-0.07,0.02-2.55,0.05-7.42c0.04-4.87,0.06-7.32,0.06-7.35c0-0.31-0.07-0.46-0.22-0.46
		c-0.12,0-0.27,0.05-0.46,0.14c-0.28,0.12-0.48,0.2-0.6,0.24c-0.63,0.18-1.29,0.28-1.99,0.28h-1.11c-0.11,0-0.17,0.05-0.17,0.15
		v0.44c0,0.07,0.06,0.11,0.17,0.11h1.68c0.36,0,0.54,1.15,0.54,3.45v15.23c0,0.14-0.07,0.21-0.21,0.21h-1.93
		c-0.09,0-0.14,0.06-0.14,0.17v0.43c0,0.09,0.06,0.14,0.17,0.14h6.79c0.08,0,0.13-0.06,0.13-0.17V22.8c0-0.07-0.06-0.11-0.18-0.11
		h-2.1c-0.33,0-0.49-1.15-0.49-3.45c0-0.21,0.05-0.36,0.17-0.43c0.65-0.42,1.2-0.78,1.65-1.08c0.07-0.06,0.19,0,0.35,0.18
		c0.03,0.04,0.06,0.08,0.1,0.12c0.14,0.23,0.28,0.45,0.4,0.63l1.5,2.03c0.94,1.25,0.96,1.44,1.95,2.33c0.66,0.6,2.28,1.35,3.52,1.3
		c0.38-0.02,0.94,0.01,1.52-0.25c0.27-0.12,0.59-0.41,0.7-0.62c0.01-0.02,0.17-0.36,0.17-0.4c0.03-0.23,0.03-0.23-0.08-0.47
		C58.15,22.4,58.12,22.27,58.02,22.29z"/>
</g>
</svg>
